<svg width="20" height="20" viewBox="0 0 20 20" fill="none" xmlns="http://www.w3.org/2000/svg">
<path d="M1.04138 10.0003C1.04138 14.9479 5.05216 18.9587 9.99971 18.9587C14.9473 18.9587 18.958 14.9479 18.958 10.0003C18.958 8.24166 18.4513 6.60136 17.5758 5.21749C17.4553 5.02696 17.395 4.93169 17.2878 4.91175C17.1805 4.8918 17.0896 4.95936 16.9076 5.09449C16.5404 5.36724 16.1674 5.67959 15.7925 6.02396C14.8218 6.91577 13.8865 7.97828 13.0658 9.00884C12.2468 10.0373 11.5523 11.0211 11.0623 11.7484C10.8176 12.1115 10.6246 12.4097 10.4934 12.6161C10.4278 12.7192 10.3776 12.7994 10.3443 12.8532L10.3069 12.9138L10.2979 12.9284L10.2959 12.9317C10.1429 13.184 9.86733 13.3372 9.57222 13.3334C9.27707 13.3296 9.00596 13.1699 8.85951 12.9136C8.06848 11.5293 7.41502 10.906 7.02183 10.6308C6.82645 10.494 6.69353 10.4418 6.63507 10.4232C6.63157 10.422 6.62982 10.4215 6.62321 10.4198C6.61738 10.4183 6.6076 10.4162 6.60166 10.4152C6.59492 10.4141 6.58773 10.4133 6.57335 10.4117C6.1569 10.3654 5.83305 10.0123 5.83305 9.58348C5.83305 9.12324 6.20614 8.75014 6.66638 8.75014C6.73223 8.74284 6.91923 8.74956 7.14041 8.83495C7.3684 8.90749 7.65215 9.03755 7.9776 9.26537C8.4187 9.57414 8.93216 10.0592 9.49104 10.8202C9.53829 10.8845 9.63549 10.8832 9.6801 10.817C10.1873 10.0642 10.9082 9.0428 11.762 7.97062C12.6142 6.90048 13.609 5.76682 14.6649 4.79664C15.0057 4.48355 15.358 4.18267 15.7188 3.90419C15.9488 3.72659 16.0639 3.63779 16.0663 3.51815C16.0688 3.3985 15.9648 3.31115 15.7567 3.13643C14.1998 1.82925 12.1917 1.04199 9.99971 1.04199C5.05216 1.04199 1.04138 5.05277 1.04138 10.0003Z" fill="white"/>
</svg>
