<svg width="24" height="24" viewBox="0 0 24 24" fill="none" xmlns="http://www.w3.org/2000/svg">
<path d="M16.68 11.21L14.65 9.77001L12.71 11.71L11.29 10.29L12.21 9.38001C12.66 8.94001 13.12 8.97001 13.68 9.24001L13.74 9.15001L11.37 7.48001C10.84 8.42001 9.85 9.00001 8.77 9.00001H7.34C6.16 9.00001 5.19 8.13001 5.03 7.00001H4V17H17.03C18.67 17 20 15.67 20 14.03C20 13.71 19.85 13.42 19.58 13.23L17.59 11.83L15.65 13.77L14.23 12.35L15.15 11.44C15.6 11 16.06 11.03 16.62 11.3L16.68 11.21ZM10.76 5.03001C11.04 4.96001 11.34 5.01001 11.58 5.18001L20.73 11.59C21.53 12.15 22 13.06 22 14.03C22 16.78 19.78 19 17.03 19H3C2.45 19 2 18.55 2 18V6.00001C2 5.45001 2.45 5.00001 3 5.00001H5.34C6.26 5.00001 7 5.75001 7 6.67001C7 6.85001 7.15 7.00001 7.34 7.00001H8.77C9.14 7.00001 9.49 6.79001 9.66 6.45001L10.11 5.55001C10.24 5.29001 10.47 5.10001 10.76 5.03001Z" fill="#646464"/>
</svg>
