<svg width="20" height="20" viewBox="0 0 20 20" fill="none" xmlns="http://www.w3.org/2000/svg">
<path d="M12.6923 1.60106C12.7241 1.34302 12.7401 1.214 12.666 1.12969C12.5918 1.04539 12.4627 1.04467 12.2043 1.04324C11.9166 1.04165 11.6144 1.04165 11.2971 1.04166L8.69997 1.04166C8.38353 1.04165 8.08203 1.04165 7.79506 1.04323C7.53812 1.04465 7.40965 1.04535 7.33558 1.12907C7.2615 1.21279 7.27654 1.34118 7.30661 1.59798L7.3525 1.98987C7.43687 2.49597 7.49242 2.82069 7.5633 3.05876C7.6299 3.28245 7.6894 3.35356 7.7366 3.39354C7.7838 3.43353 7.86372 3.48053 8.09532 3.50944C8.34423 3.54052 8.67771 3.54166 9.19949 3.54166L10.7972 3.54166C11.319 3.54166 11.6525 3.54052 11.9014 3.50944C12.133 3.48053 12.2129 3.43353 12.2601 3.39354C12.3073 3.35356 12.3668 3.28245 12.4334 3.05876C12.5043 2.82038 12.5599 2.49514 12.6445 1.98793L12.6923 1.60106Z" fill="white"/>
<path d="M5.50977 1.15494C5.72978 1.12533 5.84008 1.11032 5.92285 1.17447C6.00564 1.23875 6.01901 1.35406 6.0459 1.58365L6.1123 2.15201L6.11621 2.17545C6.19281 2.63529 6.2704 3.09804 6.36523 3.41666C6.4692 3.76587 6.62623 4.09303 6.92871 4.34927C7.2311 4.60527 7.57903 4.7065 7.94043 4.75162C8.27589 4.79348 8.68817 4.79364 9.16211 4.79361H10.834C11.3079 4.79364 11.7202 4.79346 12.0557 4.75162C12.4172 4.70648 12.7659 4.60551 13.0684 4.34927C13.3708 4.09304 13.5269 3.76586 13.6309 3.41666C13.7261 3.09676 13.803 2.63508 13.8799 2.17349L13.8828 2.15591L13.9541 1.58072C13.9823 1.35253 13.9964 1.23821 14.0791 1.17447C14.1617 1.11077 14.2714 1.12538 14.4902 1.15494L14.5361 1.16177C15.4057 1.28484 16.1196 1.54674 16.6807 2.13736C17.2372 2.72331 17.4798 3.46067 17.5947 4.36002C17.7066 5.23568 17.707 6.35487 17.707 7.76431L17.707 12.2389C17.707 13.6483 17.7065 14.7666 17.5947 15.6422C17.4798 16.5419 17.2374 17.2798 16.6807 17.8659C16.1196 18.4565 15.4057 18.7184 14.5361 18.8415C13.6981 18.96 12.6304 18.9596 11.2969 18.9596L8.7002 18.9596C7.36653 18.9596 6.298 18.9601 5.45996 18.8415C4.59056 18.7184 3.8774 18.4564 3.31641 17.8659C2.75961 17.2798 2.51726 16.542 2.40234 15.6422C2.29052 14.7666 2.29003 13.6483 2.29004 12.2389L2.29004 7.76431C2.29003 6.35488 2.2905 5.23567 2.40234 4.36002C2.51728 3.46061 2.75981 2.72333 3.31641 2.13736C3.8774 1.54684 4.59057 1.28487 5.45996 1.16177L5.50977 1.15494ZM6.66699 13.3336C6.20676 13.3336 5.83301 13.7064 5.83301 14.1667C5.83301 14.6269 6.20675 14.9997 6.66699 14.9997H7.5C7.96024 14.9997 8.33301 14.6269 8.33301 14.1667C8.333 13.7064 7.96023 13.3336 7.5 13.3336H6.66699ZM11.25 13.5417C10.9048 13.5417 10.625 13.8215 10.625 14.1667C10.625 14.5118 10.9048 14.7917 11.25 14.7917L14.167 14.7917C14.512 14.7915 14.792 14.5117 14.792 14.1667C14.792 13.8216 14.512 13.5418 14.167 13.5417L11.25 13.5417ZM9.75586 8.12466C9.64057 7.79939 9.28333 7.62956 8.95801 7.74478C8.55629 7.88709 8.18279 8.15355 7.86719 8.43033C7.54523 8.71274 7.24634 9.03837 6.99512 9.33951C6.87342 9.4854 6.76164 9.6284 6.66113 9.76041C6.58768 9.69164 6.51348 9.63333 6.44043 9.58463C6.30799 9.49633 6.1833 9.44238 6.07617 9.41177C6.02309 9.39657 5.94816 9.3703 5.83301 9.37564C5.48798 9.37582 5.20801 9.65557 5.20801 10.0006C5.20824 10.3126 5.43736 10.5713 5.73633 10.6178C5.73931 10.6196 5.74306 10.622 5.74707 10.6247C5.79363 10.6557 5.93637 10.7709 6.10742 11.1129C6.20816 11.3144 6.40981 11.4462 6.63477 11.4577C6.8596 11.4692 7.07353 11.3586 7.19434 11.1686C7.23006 11.115 7.33473 10.9578 7.40234 10.862C7.53797 10.6698 7.72976 10.4104 7.95508 10.1403C8.18163 9.86872 8.43455 9.59507 8.69141 9.36978C8.9547 9.13888 9.18857 8.9886 9.375 8.92252C9.70037 8.80728 9.8711 8.45004 9.75586 8.12466ZM11.25 8.54166C10.9048 8.54166 10.625 8.82148 10.625 9.16666C10.625 9.51183 10.9048 9.79166 11.25 9.79166L14.167 9.79166C14.512 9.79148 14.792 9.51173 14.792 9.16666C14.792 8.82159 14.512 8.54183 14.167 8.54166L11.25 8.54166Z" fill="white"/>
</svg>
